<svg width="650" height="465" viewBox="0 0 650 465" fill="none" xmlns="http://www.w3.org/2000/svg">
<g clip-path="url(#clip0_28_76)">
<path d="M82.9659 73.9734C103.393 73.9734 119.953 57.4139 119.953 36.9867C119.953 16.5595 103.393 0 82.9659 0C62.5386 0 45.9791 16.5595 45.9791 36.9867C45.9791 57.4139 62.5386 73.9734 82.9659 73.9734Z" fill="#001344"/>
<path d="M517.396 378.511C504.502 378.51 492.026 373.936 482.186 365.603C472.347 357.27 465.782 345.717 463.658 332.999L463.614 332.73L463.787 332.522C466.679 329.055 469.109 325.227 471.016 321.135C468.908 323.435 466.52 325.461 463.908 327.166L463.036 327.746L462.986 326.7C462.942 325.798 462.92 324.901 462.92 324.036C462.915 318.949 463.617 313.887 465.005 308.993C471.33 286.764 472.411 262.893 468.22 238.044C467.504 233.783 467.144 229.47 467.144 225.149C467.151 206.891 473.656 189.231 485.497 175.331C497.337 161.432 513.738 152.201 531.763 149.292C549.788 146.382 568.261 149.984 583.873 159.452C599.484 168.921 611.216 183.637 616.967 200.967L617.142 201.495L616.626 201.704C612.753 203.343 608.646 204.362 604.456 204.723C608.884 205.742 613.426 206.178 617.967 206.021L618.447 206.004L618.564 206.47C620.086 212.58 620.856 218.853 620.855 225.149L620.852 225.831C620.838 230.653 621.84 235.424 623.793 239.832C625.746 244.241 628.606 248.188 632.187 251.417C638.007 256.712 642.61 263.205 645.68 270.449C648.751 277.692 650.216 285.515 649.974 293.379C649.733 301.243 647.79 308.961 644.281 316.003C640.772 323.045 635.779 329.242 629.645 334.17L629.361 334.4L629.028 334.248C622.013 331.065 616.903 327.598 613.165 323.459C615.657 328.77 619.012 333.632 623.093 337.846L623.62 338.39L622.965 338.772C614.636 343.629 605.167 346.186 595.525 346.182L595.25 346.182C595.153 346.181 595.055 346.181 594.958 346.181C580.209 346.181 566.23 351.884 556.562 361.855C551.471 367.099 545.385 371.274 538.659 374.134C531.933 376.994 524.704 378.482 517.396 378.511Z" fill="#FB9512" fill-opacity="0.12"/>
<path d="M498.117 464.344C497.881 464.344 497.652 464.258 497.473 464.103C497.295 463.948 497.178 463.734 497.145 463.499C497.103 463.206 493.012 433.698 496.686 394.481C500.08 358.263 510.978 306.096 543.623 263.253C543.701 263.15 543.799 263.064 543.911 262.999C544.022 262.934 544.146 262.892 544.274 262.874C544.402 262.857 544.532 262.865 544.656 262.898C544.781 262.931 544.898 262.988 545.001 263.067C545.104 263.145 545.19 263.243 545.255 263.354C545.32 263.466 545.362 263.589 545.38 263.717C545.397 263.845 545.389 263.975 545.356 264.1C545.323 264.225 545.265 264.342 545.187 264.445C512.824 306.918 502.014 358.702 498.644 394.664C494.991 433.653 499.05 462.931 499.092 463.222C499.111 463.362 499.101 463.504 499.061 463.639C499.021 463.774 498.953 463.899 498.86 464.005C498.768 464.112 498.654 464.197 498.525 464.255C498.397 464.314 498.258 464.344 498.117 464.344Z" fill="#001344"/>
<path d="M514.436 319.904C514.229 319.904 514.026 319.838 513.858 319.717C513.69 319.595 513.565 319.422 513.501 319.225C513.436 319.028 513.436 318.815 513.5 318.617C513.565 318.42 513.69 318.248 513.858 318.125C523.16 311.829 533.208 306.714 543.773 302.897C560.278 296.854 585.376 291.376 611.214 299.6C611.337 299.639 611.451 299.702 611.55 299.785C611.648 299.868 611.73 299.97 611.789 300.085C611.848 300.2 611.884 300.325 611.895 300.453C611.906 300.582 611.892 300.712 611.853 300.835C611.813 300.958 611.75 301.072 611.667 301.171C611.584 301.269 611.482 301.351 611.367 301.41C611.253 301.469 611.127 301.505 610.999 301.516C610.87 301.527 610.74 301.512 610.617 301.473C585.309 293.419 560.666 298.806 544.449 304.744C534.054 308.495 524.167 313.524 515.014 319.716C514.846 319.838 514.644 319.904 514.436 319.904Z" fill="#3F3D56"/>
<path d="M114.991 391.328C105.819 391.311 91.3792 392.051 83.5136 396.204C77.4693 399.396 71.9647 403.52 67.2017 408.423C65.3659 410.32 63.6271 412.309 61.992 414.381C57.4686 398.907 56.9421 382.538 60.4618 366.804C60.7092 365.745 60.6279 364.635 60.2286 363.624C59.8293 362.612 59.131 361.746 58.2269 361.141C57.3228 360.537 56.2559 360.222 55.1684 360.24C54.0808 360.257 53.0245 360.605 52.1402 361.239C39.3621 370.557 31.1927 386.349 29.206 402.325C26.6746 422.68 32.6352 443.192 40.9196 461.964L40.9171 461.973C40.9017 462.057 40.8785 462.149 40.8557 462.241C40.825 462.379 40.7868 462.517 40.7561 462.655C40.7022 462.893 40.6412 463.138 40.5873 463.376L41.9287 463.315C42.0055 463.353 42.0822 463.384 42.1586 463.422H75.7561C76.2013 462.937 76.6161 462.425 76.998 461.889C80.7157 456.791 82.2563 449.885 84.1345 443.653C85.4947 439.14 87.1963 434.738 89.2244 430.484C94.3311 419.797 101.377 410.152 110.005 402.037C110.281 401.777 110.565 401.516 110.849 401.263C112.294 399.934 114.533 398.157 116.722 396.488C117.201 396.125 117.553 395.62 117.73 395.046C117.906 394.472 117.899 393.857 117.708 393.287C117.517 392.718 117.152 392.222 116.665 391.871C116.177 391.519 115.592 391.329 114.991 391.328Z" fill="#FB9512" fill-opacity="0.12"/>
<path d="M341.836 74.5424C342.626 76.7521 342.516 79.184 341.53 81.3136C340.544 83.4432 338.76 85.0999 336.564 85.9265C336.078 86.108 335.577 86.2461 335.066 86.3392L329.989 117.428L318.078 106.431L324.726 78.5943C324.48 76.2486 325.167 73.9003 326.638 72.0571C328.11 70.2139 330.248 69.0239 332.59 68.7443C334.56 68.5184 336.549 68.9693 338.229 70.023C339.909 71.0766 341.181 72.6703 341.836 74.5423L341.836 74.5424Z" fill="#9E616A"/>
<path d="M253.936 144.987C253.936 144.987 263.18 132.773 296.725 133.108L315.765 126.19L320.116 86.3024L335.346 89.9285L333.17 139.244L300.535 158.1L257.746 166.803L253.936 144.987Z" fill="#FB9512"/>
<path d="M202.391 445.686L211.179 449.431L229.805 417.319L216.836 411.792L202.391 445.686Z" fill="#9E616A"/>
<path d="M275.007 454.002L284.558 454.001L289.103 417.158L275.005 417.159L275.007 454.002Z" fill="#9E616A"/>
<path d="M274.671 463.966L304.044 463.965V463.593C304.043 460.561 302.839 457.653 300.695 455.509C298.551 453.365 295.643 452.161 292.611 452.161H292.61L287.245 448.09L277.234 452.161L274.67 452.161L274.671 463.966Z" fill="#2F2E41"/>
<path d="M197.048 452.065L224.07 463.58L224.216 463.238C225.404 460.449 225.436 457.302 224.305 454.489C223.173 451.676 220.97 449.428 218.181 448.239L218.18 448.238L214.84 442.39L204.035 442.21L201.676 441.205L197.048 452.065Z" fill="#2F2E41"/>
<path d="M284.377 235.952L298.893 324.345L294.943 337.518L300.127 346.847L292.514 428.776L295.604 435.58L286.97 440.905H269.4L268.468 366.733L264.128 355.843V349.842L255.293 304.614L253.666 356.349L251.097 367.256L253.255 375.022L250.435 380.462L226.262 432.368H206.561L208.085 420.629C204.555 418.842 213.384 413.619 214.232 409.755L211.332 403.228L214.232 390.899L216.892 366.808L214.087 315.956L215.407 247.477L238.454 229.854L284.377 235.952Z" fill="#1278FB"/>
<path d="M249.025 119.542C260.02 119.542 268.934 110.628 268.934 99.6327C268.934 88.637 260.02 79.7233 249.025 79.7233C238.029 79.7233 229.115 88.637 229.115 99.6327C229.115 110.628 238.029 119.542 249.025 119.542Z" fill="#9E616A"/>
<path d="M214.43 272.618C214.988 271.617 215.32 270.507 215.402 269.364C215.485 268.222 215.316 267.075 214.907 266.005C214.498 264.935 213.86 263.968 213.037 263.171C212.214 262.375 211.226 261.768 210.144 261.395L210.097 233.553L198.032 241.538L199.926 266.753C199.419 268.614 199.612 270.595 200.468 272.323C201.325 274.051 202.785 275.405 204.573 276.127C206.361 276.85 208.352 276.892 210.169 276.245C211.985 275.599 213.501 274.308 214.43 272.618Z" fill="#9E616A"/>
<path d="M213.315 149.426L207.925 144.231L203.965 147.089C203.965 147.089 200.07 151.764 196.953 165.788C193.837 179.812 196.953 256.946 196.953 256.946L214.094 254.608L211.757 214.094L218.769 179.812L213.315 149.426Z" fill="#FB9512"/>
<path d="M205.356 145.498L223.515 136.824L235.844 125.389L258.326 125.22L265.579 134.648L284.725 141.152L281.534 207.171L283.709 212.248C283.709 212.248 282.194 213.617 281.501 214.383C280.808 215.149 282.458 221.56 282.458 221.56L283.388 228.536L280.808 230.379L284.162 234.34L284.994 240.584C284.994 240.584 226.457 226.035 215.397 250.137C214.813 251.41 216.252 238.965 216.252 238.965L217.691 229.854L216.263 221.676L214.087 219.5L217.736 215.851L215.397 198.537L205.356 145.498Z" fill="#FB9512"/>
<path d="M394.899 445.295H384.123L378.995 403.73H394.899V445.295Z" fill="#FFB6B6"/>
<path d="M400.587 463.966H392.859L391.48 456.67L387.947 463.966H367.45C366.468 463.966 365.511 463.652 364.72 463.07C363.928 462.488 363.344 461.668 363.052 460.73C362.759 459.792 362.774 458.785 363.095 457.856C363.415 456.927 364.024 456.125 364.832 455.567L381.2 444.263V436.887L398.416 437.914L400.587 463.966Z" fill="#2F2E41"/>
<path d="M499.702 423.914L490.432 429.411L464.819 396.276L478.499 388.163L499.702 423.914Z" fill="#FFB6B6"/>
<path d="M514.117 437.072L507.47 441.014L502.562 435.442L503.245 443.52L485.616 453.975C484.771 454.476 483.788 454.694 482.81 454.597C481.832 454.5 480.911 454.093 480.181 453.435C479.451 452.778 478.951 451.904 478.753 450.942C478.554 449.979 478.669 448.979 479.08 448.086L487.392 430.014L483.629 423.67L498.961 415.772L514.117 437.072Z" fill="#2F2E41"/>
<path d="M390.09 179.531L384.853 212.914L434.602 213.569L428.056 181.495L390.09 179.531Z" fill="#FFB6B6"/>
<path d="M384.662 212.492L370.452 246.953L369.417 339.108L381.543 427.098H394.962L400.46 340.543L413.982 281.319L427.319 343.261L468.788 403.891H489.166L451.702 337.079L447.366 264.299C447.366 264.299 450.069 233.424 436.238 215.205L432.872 205.479L384.662 212.492Z" fill="#1278FB"/>
<path d="M454.262 237.652C452.876 237.275 451.591 236.598 450.495 235.67C449.4 234.742 448.522 233.585 447.922 232.281C447.322 230.976 447.015 229.556 447.023 228.121C447.032 226.685 447.355 225.269 447.97 223.971L426.806 154.972L442.373 151.886L461.729 219.52C463.84 220.697 465.446 222.608 466.242 224.891C467.038 227.173 466.969 229.668 466.049 231.903C465.128 234.138 463.42 235.958 461.248 237.017C459.075 238.077 456.59 238.303 454.262 237.652V237.652Z" fill="#FFB6B6"/>
<path d="M429.155 203.769L391.961 186.427C390.981 186.406 390.034 186.064 389.267 185.454C388.499 184.844 387.953 184 387.711 183.049C385.873 175.771 381.828 167.68 383.974 148.787C384.397 145.127 385.55 141.589 387.365 138.382C389.18 135.175 391.619 132.365 394.539 130.118C397.459 127.871 400.8 126.232 404.364 125.299C407.928 124.366 411.644 124.157 415.29 124.684C419.137 125.235 422.823 126.593 426.108 128.669C429.393 130.744 432.202 133.491 434.351 136.729C436.5 139.967 437.939 143.622 438.576 147.456C439.213 151.289 439.031 155.214 438.045 158.972C433.728 175.365 434.19 192.894 433.698 199.632C433.626 200.606 433.236 201.529 432.589 202.261C431.942 202.993 431.073 203.493 430.115 203.685C429.83 203.741 429.54 203.77 429.25 203.77C429.218 203.77 429.186 203.77 429.155 203.769Z" fill="#FB9512"/>
<path d="M349.073 87.8859C348.866 88.3476 348.623 88.7924 348.347 89.216L366.132 130.917L377.064 132.258L377.196 149.021L357.613 148.528C356.031 148.488 354.504 147.936 353.263 146.954C352.021 145.973 351.131 144.616 350.727 143.086L337.545 93.221C335.677 92.664 334.024 91.5517 332.804 90.032C331.584 88.5123 330.856 86.6573 330.716 84.7137C330.577 82.77 331.032 80.8299 332.022 79.1514C333.011 77.4728 334.489 76.1354 336.257 75.3169C338.026 74.4985 340.001 74.2379 341.922 74.5697C343.842 74.9016 345.616 75.8101 347.007 77.1746C348.398 78.5391 349.341 80.2948 349.71 82.2081C350.079 84.1215 349.857 86.1019 349.073 87.8859V87.8859Z" fill="#FFB6B6"/>
<path d="M367.923 129.431C368.366 129.039 368.888 128.747 369.453 128.575C370.019 128.403 370.615 128.355 371.201 128.435L391.661 131.205C394.685 131.165 397.601 132.327 399.771 134.435C401.94 136.543 403.185 139.425 403.232 142.449C403.28 145.473 402.126 148.393 400.024 150.568C397.922 152.742 395.043 153.995 392.019 154.051L371.57 157.347C370.986 157.441 370.389 157.408 369.819 157.251C369.249 157.093 368.72 156.815 368.268 156.435C367.815 156.054 367.45 155.581 367.197 155.046C366.944 154.512 366.809 153.93 366.802 153.338L366.537 132.564C366.529 131.973 366.649 131.387 366.888 130.846C367.127 130.305 367.481 129.823 367.923 129.431Z" fill="#FB9512"/>
<path d="M425.858 172.45C425.334 172.175 424.877 171.79 424.516 171.322C424.155 170.854 423.899 170.313 423.766 169.737L419.119 149.62C418.013 146.806 418.068 143.667 419.273 140.893C420.477 138.119 422.732 135.935 425.544 134.821C428.355 133.707 431.494 133.753 434.272 134.95C437.049 136.146 439.239 138.395 440.361 141.203L450.679 159.164C450.973 159.677 451.154 160.247 451.208 160.836C451.262 161.424 451.189 162.018 450.993 162.576C450.797 163.133 450.484 163.642 450.073 164.068C449.663 164.494 449.166 164.826 448.616 165.042L429.278 172.639C428.728 172.855 428.138 172.951 427.547 172.918C426.957 172.885 426.381 172.726 425.858 172.45Z" fill="#FB9512"/>
<path d="M425.033 117.59C435.226 112.018 438.973 99.2374 433.4 89.044C427.828 78.8506 415.048 75.1043 404.854 80.6766C394.661 86.2488 390.915 99.0294 396.487 109.223C402.059 119.416 414.84 123.162 425.033 117.59Z" fill="#FFB6B6"/>
<path d="M400.474 90.6776C395.961 90.6522 391.448 90.6268 386.935 90.6014C386.614 87.5256 387.983 84.4655 389.977 82.1024C391.972 79.7392 394.555 77.9598 397.104 76.21C399.693 74.4335 402.375 72.6167 405.452 71.9958C408.032 71.4755 410.698 71.8365 413.304 72.1989C416.76 72.6795 420.216 73.16 423.671 73.6406C427.465 74.1681 431.434 74.7647 434.515 77.0398C438.682 80.1164 437.616 87.218 441.614 90.5106C453.689 100.455 448.8 109.14 449.025 118.204C434.434 119.735 419.843 121.265 405.251 122.796C403.668 123.069 402.046 123.021 400.481 122.657C398.948 122.189 397.543 120.92 397.43 119.322C397.304 117.537 398.72 116.075 399.87 114.704C402.614 111.305 404.261 107.152 404.593 102.796C404.925 98.4406 403.927 94.0866 401.731 90.3103L400.474 90.6776Z" fill="#2F2E41"/>
<path d="M243.931 118.567C243.846 118.38 243.761 118.192 243.677 118.004C243.709 118.005 243.742 118.009 243.774 118.01L243.931 118.567Z" fill="#2F2E41"/>
<path d="M228.561 80.6287C229.507 79.7368 230.735 79.2056 232.033 79.1278C233.32 79.1693 234.626 80.3321 234.359 81.5923C236.724 77.4053 240.488 74.185 244.99 72.4967C249.493 70.8084 254.446 70.7599 258.981 72.3598C262.18 73.4887 265.318 75.7472 266.053 79.0597C266.125 79.9294 266.384 80.7732 266.814 81.533C267.186 81.9391 267.668 82.2276 268.202 82.3629C268.736 82.4981 269.298 82.4743 269.818 82.2942L269.85 82.2849C270.028 82.2241 270.22 82.2181 270.402 82.2678C270.584 82.3174 270.746 82.4204 270.869 82.5634C270.991 82.7065 271.068 82.8829 271.089 83.07C271.11 83.2571 271.074 83.4462 270.987 83.6128L270.081 85.3014C271.223 85.5557 272.408 85.5305 273.538 85.2278C273.725 85.1786 273.924 85.1887 274.105 85.2566C274.287 85.3245 274.443 85.447 274.553 85.6072C274.662 85.7674 274.719 85.9576 274.716 86.1515C274.713 86.3454 274.65 86.5337 274.536 86.6905C273.031 88.749 271.067 90.4279 268.799 91.5935C266.531 92.7592 264.023 93.3794 261.473 93.4049C257.856 93.3828 254.201 92.1361 250.681 92.9679C249.319 93.2898 248.046 93.9124 246.956 94.7902C245.866 95.668 244.986 96.7788 244.382 98.0409C243.777 99.303 243.462 100.684 243.461 102.084C243.46 103.483 243.772 104.865 244.375 106.128C243.293 104.946 241.203 105.226 240.096 106.385C239.587 107.006 239.21 107.725 238.99 108.498C238.77 109.27 238.71 110.079 238.815 110.876C239.11 113.314 239.834 115.682 240.954 117.869C236.676 117.737 232.542 116.296 229.109 113.739C225.677 111.183 223.112 107.635 221.761 103.574C220.409 99.5129 220.337 95.1351 221.553 91.0318C222.769 86.9284 225.215 83.2972 228.561 80.6286V80.6287Z" fill="#2F2E41"/>
<path d="M149.713 8.60882C131.787 6.18587 111.323 15.8747 106.677 33.3562C105.506 30.248 103.377 27.5925 100.598 25.7732C97.8193 23.954 94.534 23.0653 91.2169 23.2355C87.8999 23.4058 84.7228 24.6261 82.1447 26.7202C79.5666 28.8143 77.7209 31.6738 76.8744 34.8855L78.9266 36.3553C117.34 44.6623 157.104 44.4825 195.441 35.8285C182.972 22.7244 167.638 11.0317 149.713 8.60882Z" fill="#F0F0F0"/>
<path d="M72.8383 57.9244C54.913 55.5014 34.4482 65.1902 29.8022 82.6718C28.6314 79.5636 26.5028 76.908 23.7238 75.0888C20.9449 73.2696 17.6596 72.3809 14.3425 72.5511C11.0255 72.7213 7.84838 73.9416 5.27028 76.0357C2.69217 78.1298 0.846535 80.9893 0 84.2011L2.05219 85.6709C40.4658 93.9779 80.2298 93.7981 118.567 85.1441C106.098 72.0399 90.7637 60.3473 72.8383 57.9244Z" fill="#F0F0F0"/>
</g>
<defs>
<clipPath id="clip0_28_76">
<rect width="650" height="464.674" fill="white"/>
</clipPath>
</defs>
</svg>
